<?xml version="1.0" standalone="no"?>
<!DOCTYPE svg PUBLIC "-//W3C//DTD SVG 20010904//EN"
 "http://www.w3.org/TR/2001/REC-SVG-20010904/DTD/svg10.dtd">
<svg version="1.0" xmlns="http://www.w3.org/2000/svg"
 width="1080.000000pt" height="1080.000000pt" viewBox="0 0 1080.000000 1080.000000"
 preserveAspectRatio="xMidYMid meet">

<g transform="translate(0.000000,1080.000000) scale(0.100000,-0.100000)"
fill="#000000" stroke="none">
<path d="M2260 7224 c-312 -23 -605 -91 -820 -191 -285 -132 -516 -355 -650
-628 -127 -259 -180 -520 -180 -880 1 -329 46 -558 156 -790 78 -165 207 -338
326 -436 53 -44 53 -44 27 -9 -190 255 -280 482 -320 805 -17 143 -15 455 4
600 83 615 415 1020 995 1215 245 81 531 120 895 120 347 0 580 -32 850 -116
43 -13 79 -24 81 -24 8 0 -1 121 -9 128 -43 37 -431 148 -600 171 -44 6 -114
16 -155 22 -77 11 -502 20 -600 13z"/>
<path d="M5185 7093 c-217 -54 -776 -191 -961 -235 l-134 -32 2 -1464 3 -1465
155 -37 c85 -21 369 -90 630 -154 262 -64 481 -116 488 -116 9 0 12 374 12
1775 0 976 -3 1775 -7 1774 -5 -1 -89 -21 -188 -46z"/>
<path d="M5542 5363 c3 -1575 5 -1778 18 -1774 8 2 152 36 320 77 168 40 463
111 655 157 l350 84 3 228 2 227 -27 -6 c-16 -3 -75 -13 -133 -21 -58 -8 -197
-28 -310 -45 -249 -36 -260 -37 -288 -7 l-22 23 0 1051 c0 578 3 1059 6 1068
4 8 19 22 34 30 26 13 55 11 302 -25 150 -22 297 -45 327 -50 30 -6 67 -10 83
-10 l28 0 0 219 c0 121 -4 222 -9 225 -4 3 -111 30 -237 61 -126 30 -380 91
-564 135 -184 44 -379 92 -433 105 -54 14 -100 25 -102 25 -3 0 -4 -800 -3
-1777z"/>
<path d="M7165 7030 c-1 -3 -6 -70 -9 -150 -4 -80 -11 -237 -16 -350 -6 -113
-17 -482 -25 -820 -9 -338 -20 -768 -26 -955 -13 -447 -25 -890 -24 -940 l0
-40 58 -3 57 -4 0 1606 0 1606 783 1 c439 1 758 5 727 10 -92 13 -1519 50
-1525 39z"/>
<path d="M8390 5741 l0 -301 176 0 c96 0 194 5 217 11 71 18 119 57 155 128
29 58 32 73 32 151 0 151 -43 240 -140 284 -40 18 -69 21 -242 24 l-198 4 0
-301z"/>
<path d="M2565 5994 c-231 -31 -402 -128 -473 -271 -64 -126 -89 -346 -57
-503 36 -178 86 -265 192 -337 140 -93 307 -133 565 -133 246 0 446 32 669
106 l107 35 4 47 c2 26 2 68 0 93 l-4 47 -72 -28 c-102 -40 -264 -86 -379
-110 -237 -48 -555 -52 -736 -10 -101 24 -175 53 -164 63 3 4 -3 17 -14 30
-34 38 -61 89 -87 169 -55 164 -24 345 85 493 88 121 243 209 419 241 99 18
340 17 465 -1 168 -25 317 -16 223 13 -61 19 -173 42 -255 52 -130 17 -377 19
-488 4z"/>
<path d="M9282 5495 c-9 -16 23 -234 37 -248 14 -14 41 4 41 27 0 34 -28 215
-35 226 -9 15 -33 12 -43 -5z"/>
<path d="M10182 5440 c0 -14 2 -19 5 -12 2 6 2 18 0 25 -3 6 -5 1 -5 -13z"/>
<path d="M8873 5393 c-26 -10 -11 -40 46 -97 60 -59 91 -69 91 -29 0 16 -108
134 -120 132 -3 0 -11 -3 -17 -6z"/>
<path d="M10111 5226 c-61 -146 -192 -346 -233 -354 -8 -2 -163 47 -343 108
-181 60 -337 110 -347 110 -10 0 -21 -6 -24 -14 -3 -7 33 -128 80 -267 47
-139 86 -259 86 -265 0 -6 -37 -19 -82 -29 -70 -16 -142 -19 -470 -23 l-388
-3 0 -68 c0 -125 13 -340 20 -336 4 3 26 36 50 75 58 98 137 174 223 216 39
19 79 34 87 34 9 0 21 5 26 10 6 6 86 15 178 20 174 10 276 23 322 41 15 5 33
8 39 5 7 -2 34 -65 60 -140 47 -135 63 -163 87 -153 7 3 42 57 76 121 35 65
67 116 72 114 4 -2 61 -54 126 -115 65 -62 123 -113 129 -113 16 0 165 154
165 171 0 8 -16 31 -36 50 -20 18 -72 73 -115 121 l-80 86 113 62 c163 89 168
101 57 145 -38 15 -69 29 -69 31 0 2 22 34 49 71 27 38 67 102 89 144 40 78
97 218 91 223 -2 2 -19 -33 -38 -78z"/>
<path d="M8750 4964 c-24 -27 8 -42 125 -57 61 -8 116 -12 123 -9 7 2 12 14
10 26 -3 18 -13 22 -88 33 -47 6 -101 14 -121 17 -26 4 -40 1 -49 -10z"/>
<path d="M1481 3966 c4 -4 21 -11 39 -16 19 -5 29 -6 24 -1 -10 10 -72 26 -63
17z"/>
<path d="M1575 3920 c-3 -5 10 -12 30 -16 19 -3 32 -10 29 -15 -3 -5 3 -6 12
-2 15 6 14 8 -7 16 -13 5 -32 13 -41 18 -10 5 -19 5 -23 -1z"/>
<path d="M1660 3880 c-13 -9 -13 -10 0 -10 8 0 28 -7 44 -15 16 -9 36 -13 43
-10 8 2 12 1 9 -4 -5 -8 159 -62 269 -88 290 -68 703 -87 1030 -47 128 16 291
54 275 64 -5 3 -61 -2 -122 -12 -235 -37 -289 -40 -588 -35 -162 3 -311 10
-330 16 -31 9 -260 43 -302 45 -9 0 -15 3 -12 7 3 6 -109 32 -133 31 -5 0 -13
4 -20 10 -7 5 -18 6 -24 2 -7 -4 -9 -3 -6 3 7 10 -55 33 -91 33 -11 0 -22 4
-24 10 -2 6 -8 6 -18 0z"/>
<path d="M7475 3755 c94 -7 194 -18 224 -24 66 -14 166 -14 136 -1 -12 6 67 9
210 9 276 -1 255 -2 255 16 0 13 -61 15 -497 14 -489 -2 -495 -2 -328 -14z
m323 -22 c-10 -2 -28 -2 -40 0 -13 2 -5 4 17 4 22 1 32 -1 23 -4z"/>
</g>
</svg>
